# xmcd
#
# Track frame offsets:
#	150
#	4252
#	26417
#	44545
#	67245
#	87382
#	113087
#	149007
#	167287
#	182200
#	207265
#
# Disc length: 3071 seconds
#
# Revision: 1
# Processed by: cddbd v1.5.1PL2 Copyright (c) Steve Scherf et al.
# Submitted via: audiograbber 1.83.01
#
DISCID=9b0bfd0b
DTITLE=Randy Casey - Mad At The World
DYEAR=1994
DGENRE=Blues
TTITLE0=Intro
TTITLE1=Stand In The Water
TTITLE2=Mad At The World
TTITLE3=The Magic Word
TTITLE4=When The Shadows Get Long
TTITLE5=Rattlesnakes' Blues
TTITLE6=Little Boy
TTITLE7=There's No Escaping You
TTITLE8=Crazy Without You
TTITLE9=Out On The Highway
TTITLE10=Marble Canyon
EXTD=
EXTT0=
EXTT1=
EXTT2=
EXTT3=
EXTT4=
EXTT5=
EXTT6=
EXTT7=
EXTT8=
EXTT9=
EXTT10=
PLAYORDER=
